<svg width="48" height="48" viewBox="0 0 48 48" fill="none" xmlns="http://www.w3.org/2000/svg">
<rect x="2" y="2" width="44" height="44" rx="22" fill="#17161A" stroke="#9484F2" stroke-width="4"/>
<path d="M26.1198 17H33V21.9754C33 23.9787 32.8204 25.555 32.4613 26.7044C32.1186 27.8539 31.4656 28.8966 30.5026 29.8325C29.5558 30.7521 28.3561 31.4745 26.9034 32L25.5567 29.1182C26.9278 28.6585 27.9072 28.0181 28.4948 27.197C29.0988 26.376 29.4089 25.2841 29.4253 23.9212H26.1198V17ZM14.5631 17H21.4433V21.9754C21.4433 23.9787 21.2719 25.555 20.9291 26.7044C20.5863 27.8539 19.9334 28.8966 18.9704 29.8325C18.0236 30.7521 16.8157 31.4745 15.3466 32L14 29.1182C15.3875 28.6585 16.375 28.0181 16.9626 27.197C17.5503 26.376 17.8604 25.2841 17.893 23.9212H14.5631V17Z" fill="#9484F2"/>
</svg>
